<svg xmlns="http://www.w3.org/2000/svg" xmlns:xlink="http://www.w3.org/1999/xlink" version="1.1" data-diagram-type="CLASS" style="width:959px;height:287px;background:#FFFFFF;" width="959px" height="287px" viewBox="0 0 959 287" zoomAndPan="magnify" preserveAspectRatio="none" contentStyleType="text/css"><?plantuml 1.2026.8beta1?><defs/><g font-family="sans-serif" lengthAdjust="spacing"><!--cluster \App\FizzBuzz--><g class="cluster" data-qualified-name=".App.FizzBuzz" id="ent0002" data-source-line="6"><path d="M274.05,11 L383.748,11 A3.75,3.75 0 0 1 386.248,13.5 L393.248,33.297 L792.05,33.297 A2.5,2.5 0 0 1 794.55,35.797 L794.55,269.77 A2.5,2.5 0 0 1 792.05,272.27 L274.05,272.27 A2.5,2.5 0 0 1 271.55,269.77 L271.55,13.5 A2.5,2.5 0 0 1 274.05,11" style="stroke:#000;stroke-width:1;" fill="#FFF"/><line x1="271.55" y1="33.297" x2="393.248" y2="33.297" style="stroke:#000;stroke-width:1;"/><text x="275.55" y="25.995" fill="#000" font-size="14" textLength="108.698" font-weight="700" font-family="Verdana">\App\FizzBuzz</text></g><!--class FizzBuzzGenerator--><g class="entity" data-qualified-name=".App.FizzBuzz.FizzBuzzGenerator" id="ent0003" data-source-line="7"><rect x="287.23" y="46" width="324.645" height="74.891" fill="#FFF" style="stroke:#000;stroke-width:1;" rx="2.5" ry="2.5"/><text x="384.098" y="63.995" fill="#000" font-size="14" textLength="130.908" font-family="Verdana">FizzBuzzGenerator</text><line x1="288.23" y1="72.297" x2="610.875" y2="72.297" style="stroke:#000;stroke-width:1;"/><line x1="288.23" y1="80.297" x2="610.875" y2="80.297" style="stroke:#000;stroke-width:1;"/><g data-visibility-modifier="PUBLIC_METHOD"><ellipse cx="298.23" cy="93.945" rx="3" ry="3" fill="#FFF" style="stroke:#000;stroke-width:1;"/></g><text x="305.23" y="97.292" fill="#000" font-size="14" textLength="300.645" font-family="Verdana">string[] generate(int, int, int, string, string)</text><g data-visibility-modifier="PRIVATE_METHOD"><rect x="295.23" y="107.242" width="6" height="6" fill="#FFF" style="stroke:#000;stroke-width:1;"/></g><text x="305.23" y="113.589" fill="#000" font-size="14" textLength="295.176" font-family="Verdana">string transform(int, int, int, string, string)</text></g><!--class FizzBuzzSerializer--><g class="entity" data-qualified-name=".App.FizzBuzz.FizzBuzzSerializer" id="ent0004" data-source-line="11"><rect x="647.03" y="62.29" width="131.036" height="42.297" fill="#FFF" style="stroke:#000;stroke-width:1;" rx="2.5" ry="2.5"/><text x="650.03" y="80.285" fill="#000" font-size="14" textLength="125.036" font-family="Verdana">FizzBuzzSerializer</text><line x1="648.03" y1="88.587" x2="777.066" y2="88.587" style="stroke:#000;stroke-width:1;"/><line x1="648.03" y1="96.587" x2="777.066" y2="96.587" style="stroke:#000;stroke-width:1;"/></g><!--class FizzBuzzGeneratorInterface--><g class="entity" data-qualified-name=".App.FizzBuzz.FizzBuzzGeneratorInterface" id="ent0005" data-source-line="12"><rect x="287.23" y="183.71" width="324.645" height="72.563" fill="#FFF" style="stroke:#000;stroke-width:1;" rx="2.5" ry="2.5"/><text x="415.451" y="199.849" fill="#000" font-size="12" textLength="68.203" font-style="italic" font-family="Verdana">«interface»</text><text x="352.759" y="215.674" fill="#000" font-size="14" textLength="193.587" font-style="italic" font-family="Verdana">FizzBuzzGeneratorInterface</text><line x1="288.23" y1="223.976" x2="610.875" y2="223.976" style="stroke:#000;stroke-width:1;"/><line x1="288.23" y1="231.976" x2="610.875" y2="231.976" style="stroke:#000;stroke-width:1;"/><g data-visibility-modifier="PUBLIC_METHOD"><ellipse cx="298.23" cy="245.624" rx="3" ry="3" fill="#FFF" style="stroke:#000;stroke-width:1;"/></g><text x="305.23" y="248.971" fill="#000" font-size="14" textLength="300.645" font-family="Verdana">string[] generate(int, int, int, string, string)</text></g><!--class SerializerInterface--><g class="entity" data-qualified-name="SerializerInterface" id="ent0001" data-source-line="5"><rect x="810.6" y="191.86" width="133.9" height="56.266" fill="#FFF" style="stroke:#000;stroke-width:1;" rx="2.5" ry="2.5"/><text x="843.449" y="207.999" fill="#000" font-size="12" textLength="68.203" font-style="italic" font-family="Verdana">«interface»</text><text x="813.6" y="223.824" fill="#000" font-size="14" textLength="127.9" font-style="italic" font-family="Verdana">SerializerInterface</text><line x1="811.6" y1="232.126" x2="943.5" y2="232.126" style="stroke:#000;stroke-width:1;"/><line x1="811.6" y1="240.126" x2="943.5" y2="240.126" style="stroke:#000;stroke-width:1;"/></g><path d="M11,43.18 L11,113.711 A0,0 0 0 0 11,113.711 L252.105,113.711 A0,0 0 0 0 252.105,113.711 L252.105,82.446 L293.23,108.742 L252.105,74.446 L252.105,53.18 L242.105,43.18 L11,43.18 A0,0 0 0 0 11,43.18" style="stroke:#000;stroke-width:1;" fill="#FFF"/><path d="M242.105,43.18 L242.105,53.18 L252.105,53.18 L242.105,43.18" style="stroke:#000;stroke-width:1;" fill="#FFF"/><text x="17" y="60.247" fill="#000" font-size="13" textLength="158.025" font-family="Verdana">Transformation strategy</text><text x="17" y="75.38" fill="#000" font-size="13" textLength="220.105" font-family="Verdana">multiple of int1 * int2 =&gt; str1str2</text><text x="17" y="90.513" fill="#000" font-size="13" textLength="154.635" font-family="Verdana">multiple of int1 =&gt; str1</text><text x="17" y="105.645" fill="#000" font-size="13" textLength="154.635" font-family="Verdana">multiple of int2 =&gt; str2</text><!--link FizzBuzzGenerator to FizzBuzzGeneratorInterface--><g class="link" data-entity-1="ent0003" data-entity-2="ent0005" id="lnk6" data-source-line="17" data-link-type="extension"><path d="M449.55,121.12 C449.55,140.53 449.55,146.12 449.55,165.38" style="stroke:#000;stroke-width:1;stroke-dasharray:7,7;" fill="none" id="FizzBuzzGenerator-to-FizzBuzzGeneratorInterface" codeLine="17"/><polygon points="449.55,183.38,455.55,165.38,443.55,165.38,449.55,183.38" fill="none" style="stroke:#000;stroke-width:1;stroke-linejoin:miter;stroke-miterlimit:10;"/></g><!--link FizzBuzzSerializer to SerializerInterface--><g class="link" data-entity-1="ent0004" data-entity-2="ent0001" id="lnk7" data-source-line="18" data-link-type="extension"><path d="M778.24,84.27 C824.25,84.27 877.55,84.27 877.55,84.27 C877.55,84.27 877.55,133.74 877.55,173.54" style="stroke:#000;stroke-width:1;stroke-dasharray:7,7;" fill="none" id="FizzBuzzSerializer-to-SerializerInterface" codeLine="18"/><polygon points="877.55,191.54,883.55,173.54,871.55,173.54,877.55,191.54" fill="none" style="stroke:#000;stroke-width:1;stroke-linejoin:miter;stroke-miterlimit:10;"/></g><?plantuml-src fL4zKyCm3DtrAqGdFahlch5NSaS7E6ROA8CkLH9T7Tldk4C3-UyuJPCCBZ0msBBrzEJtv2jVSiLe5Oc6UY_QagCAbMZsHyjed2yDbB9ZpCHbYW54UtOvPOolx8IKDEnUnjnwFU9f2fQoFHMCi-sZjTidQPhDeMbc-0c8cQAwnY7tp9eTUUDE6E8Trjw9Bju_iEWXlWwTvpXjVS4GRqwq-_CDlIDTvyPLVxFQICnaB42JtqZh3xR_Ow655Y0UocBnbVxoFiJAUyg5BmBGnZCgpZsQF6wwMesp2thUXZDvCReJ6cmKnu1K1-N5AkwQ13DBlEr2WWzfLxKCAxbKTOPZQ60cm7g7dSPl?></g></svg>